PathFileType	4	(X/Y/Z)	C:/Users/beibeiliu/ov580/test_trc/User2\sequence.6_training_dense_left.trc
DataRate	CameraRate	NumFrames	NumMarkers	Units	OrigDataRate	OrigDataStartFrame	OrigNumFrames
120	120	20	19	mm	120	191	381
Frame#	Time	ThumbCMC			ThumbMCP			ThumbIP			ThumbTip			IndexMCP			IndexPIP			IndexTip			MiddleMCP			MiddlePIP			MiddleTip			RingMCP			RingPIP			RingTip			PinkyMCP			PinkyPIP			PinkyTip			BackHand1			BackHand2			BackHand3	
		X0	Y0	Z0	X1	Y1	Z1	X2	Y2	Z2	X3	Y3	Z3	X4	Y4	Z4	X5	Y5	Z5	X6	Y6	Z6	X7	Y7	Z7	X8	Y8	Z8	X9	Y9	Z9	X10	Y10	Z10	X11	Y11	Z11	X12	Y12	Z12	X13	Y13	Z13	X14	Y14	Z14	X15	Y15	Z15	X16	Y16	Z16	X17	Y17	Z17	X18	Y18	Z18	
190	1.58333	-80.6509	-11.3164	92.0934	-108.175	-36.6322	77.4504	-133.543	-53.8294	60.0081	-158.515	-49.1191	47.1714	-96.3699	13.6597	17.2976	-113.882	6.28639	-9.41763	-138.149	-19.359	-18.219	-130.628	12.3105	19.2031	-153.631	-19.46	22.6654	-153.859	-33.0308	59.1148	-151.944	18.2151	35.7322	-164.509	-12.0045	43.0034	-154.951	-23.8199	77.1043	-160.087	26.8306	53.1737	-168.537	-5.86869	62.5425	-150.207	-17.366	89.1192	-115.436	53.7346	71.6793	-100.786	60.2908	102.815	-75.9671	34.1747	83.0217	
191	1.59167	-85.3815	-12.047	92.2665	-109.203	-38.3255	82.7235	-136.12	-53.2357	65.9952	-162.439	-44.4174	52.4031	-102.709	5.35806	15.8281	-123.64	-9.10399	-6.62479	-147.962	-31.0271	2.49656	-132.587	8.41415	20.5046	-158.731	-17.6126	24.9384	-155.261	-34.1175	64.4595	-151.159	11.0853	33.1298	-168.928	-12.6995	47.2758	-157.06	-22.7046	79.1092	-160.261	22.7216	52.9599	-172.324	-5.51889	63.834	-151.049	-15.2968	89.7889	-113.327	52.0046	71.5819	-99.0144	57.7898	101.313	-80.0784	32.6881	83.3624	
192	1.6	-85.43	-19.1921	96.0197	-113.973	-43.236	83.177	-143.087	-53.4111	67.0875	-170.747	-46.0998	54.6563	-110.604	-4.58034	15.373	-135.192	-18.7639	4.93037	-153.193	-44.7228	26.0129	-134.744	5.48759	23.7189	-162.712	-19.8039	30.2117	-159.743	-34.3229	67.4005	-156.284	11.0462	37.2173	-172.816	-14.578	49.8172	-155.983	-26.1714	81.1424	-165.668	24.5357	56.1779	-177.424	-5.02326	67.1915	-159.058	-16.9257	93.6095	-112.218	47.6308	74.6822	-94.4338	52.1759	104.968	-79.4791	26.2106	82.2745	
193	1.60833	-86.027	-22.2117	98.5795	-117.967	-43.275	88.3654	-149.444	-55.1356	70.9059	-174.098	-48.086	60.4406	-117.407	-11.9501	17.5908	-142.048	-30.1058	12.3159	-160.229	-45.7691	39.5564	-140.959	-1.98864	23.9615	-166.349	-23.165	33.6921	-161.625	-34.4995	72.7266	-160.254	7.97945	39.4614	-174.678	-16.712	53.4781	-163.254	-25.9494	83.3073	-162.627	21.7437	56.7645	-179.493	-6.35159	70.0655	-158.839	-17.3835	98.136	-115.103	44.4264	71.7447	-96.3893	54.0152	102.877	-79.5923	20.8449	80.6851	
194	1.61667	-92.4298	-23.7448	98.0973	-121.83	-47.6284	90.2981	-151.932	-56.1331	78.5755	-176.179	-43.0323	65.888	-119.155	-12.2521	21.1592	-146.806	-31.1515	13.4186	-162.485	-47.3829	34.263	-140.76	-3.7243	26.7562	-169.43	-26.8182	38.4675	-165.572	-35.0493	75.0138	-158.14	8.53575	42.3944	-177.847	-14.7131	54.9516	-162.982	-27.8168	89.5157	-165.018	21.6806	58.9724	-178.108	-8.34821	73.3374	-160.416	-18.1332	98.2753	-112.927	42.5179	75.4262	-95.9227	47.6223	105.224	-80.6718	19.35	84.5362	
195	1.625	-92.8841	-26.7585	104.06	-123.601	-47.8846	95.789	-155.937	-58.9053	79.4731	-180.333	-48.676	71.0149	-114.344	-12.4622	23.7429	-144.96	-26.6844	8.04321	-166.215	-44.3957	24.9251	-143.075	-4.63828	28.1612	-171.546	-23.6065	37.3436	-166.174	-38.7019	78.1728	-160.221	8.36206	45.8081	-180.452	-14.3165	58.2492	-169.681	-27.8257	89.9116	-166.349	18.658	60.5665	-179.87	-6.57601	72.1443	-161.096	-19.1543	99.0049	-111.341	39.5912	75.138	-95.118	44.0218	103.239	-82.3709	15.3829	81.7346	
196	1.63333	-96.0451	-27.6729	105.258	-125.222	-50.1826	99.4349	-157.778	-62.1183	85.7839	-185.265	-49.5322	69.9585	-111.817	-14.0669	24.8071	-136.068	-21.4506	5.39701	-167.039	-38.6455	11.0089	-141.915	-4.35215	31.8361	-174.31	-25.9295	42.1565	-169.494	-43.1628	78.8419	-161.367	5.17259	46.5144	-178.973	-20.2943	60.7149	-169.673	-31.5328	91.6964	-165.511	18.2642	62.617	-181.825	-7.86052	75.4352	-165.996	-19.5574	102.112	-112.598	38.2412	78.2706	-94.3342	44.5034	107.13	-80.1855	9.90162	88.014	
197	1.64167	-94.7153	-32.7017	105.483	-125.812	-51.7136	100.873	-159.251	-60.964	84.4565	-184.938	-54.5084	72.6606	-110.699	-14.2707	23.6742	-134.38	-20.4786	1.25926	-159.861	-34.6995	-3.23917	-144.055	-4.1677	33.1567	-171.172	-28.5567	38.772	-172.324	-44.5938	78.7901	-160.365	3.70757	47.2306	-179.225	-19.1507	59.9924	-172.802	-29.9124	92.8985	-166.147	17.7684	63.0152	-182.332	-7.72507	76.6848	-169.877	-22.6857	100.41	-111.805	34.8472	78.2407	-94.7533	41.4891	111.385	-83.7007	10.215	86.6235	
198	1.65	-93.9304	-34.4271	108.867	-127.198	-50.9932	99.4242	-157.193	-63.5553	86.833	-183.598	-55.6097	71.6184	-109.824	-13.5148	27.9328	-127.118	-20.2282	-0.31915	-155.779	-27.4301	-11.9136	-147.019	-6.32792	32.0875	-175.594	-27.5345	42.6537	-174.56	-44.3975	77.8251	-160.914	6.64754	48.4966	-182.858	-16.6292	62.6086	-173.693	-32.1975	90.4525	-165.81	20.6963	64.597	-184.465	-6.32468	76.5162	-172.183	-21.9784	100.926	-113.13	35.4211	77.1323	-94.9	39.1875	109.553	-81.488	9.51507	89.9539	
199	1.65833	-98.6297	-30.6176	105.608	-128.967	-50.9733	96.0125	-160.919	-64.4353	81.358	-183.035	-57.2999	72.555	-113.11	-9.85863	25.369	-129.342	-15.6331	1.09112	-154.931	-26.3262	-15.0282	-145.786	-8.10732	31.1908	-174.453	-26.4588	39.6793	-179.15	-41.3569	75.9358	-161.259	3.89882	47.8584	-181.799	-17.7741	60.3354	-174.856	-31.7364	93.4362	-172.302	17.2449	64.0318	-184.379	-7.21702	75.4881	-173.829	-20.7956	102.582	-112.985	31.442	78.0234	-96.2937	40.1331	109.78	-81.8897	6.19075	85.4105	
200	1.66667	-99.7746	-32.2083	104.315	-130.423	-52.6232	95.6755	-161.298	-67.2283	82.6352	-184.577	-55.9479	71.7816	-116.246	-8.34661	24.5509	-131.606	-15.0415	1.25742	-160.477	-28.5255	-11.6199	-147.553	-3.67	34.2966	-177.322	-32.1079	40.4874	-179.511	-41.3066	77.564	-160.988	2.97725	48.1885	-185.015	-17.452	59.6027	-175.539	-34.3384	92.3463	-170.255	16.8921	64.8586	-186.622	-9.24283	77.4934	-174.359	-23.9513	105.587	-116.128	34.3904	81.998	-99.7308	41.4741	111.046	-85.615	11.4551	90.2047	
201	1.675	-100.889	-32.4734	103.916	-129.753	-56.5279	99.6112	-159.683	-66.7808	85.992	-186.632	-58.5516	74.5422	-120.967	-7.99651	28.0126	-144.354	-15.2564	2.62695	-169.15	-31.11	0.872929	-149.945	-7.35863	32.4401	-179.924	-31.7177	43.4686	-180.039	-43.2358	78.9484	-170.201	3.92645	48.8136	-189.057	-19.1985	64.8118	-177.827	-33.175	96.9111	-176.182	16.4294	65.5805	-190.779	-12.2266	82.0091	-175.235	-22.7172	105.649	-120.824	34.7959	77.7903	-100.081	40.3317	110.782	-86.8733	11.8628	89.1079	
202	1.68333	-100.122	-30.4068	107.683	-133.003	-49.7693	96.5904	-162.611	-64.1091	85.7519	-189.974	-58.2354	75.6103	-124.849	-12.401	28.9336	-152.54	-22.6711	6.89462	-178.55	-38.7374	16.9929	-152.042	-8.27964	34.4136	-181.794	-35.2451	44.674	-180.663	-41.6626	81.8174	-169.429	-0.430594	48.5955	-188.676	-21.5031	60.9602	-179.018	-34.1252	93.5656	-179.868	12.2529	66.1591	-192.649	-11.1223	79.8755	-177.508	-24.4781	106.677	-123.476	32.4411	77.4323	-102.735	41.5366	106.604	-93.1947	11.2112	85.0482	
203	1.69167	-101.659	-30.0088	103.988	-133.732	-54.0629	97.2811	-164.522	-67.0119	86.1491	-187.973	-54.388	77.8212	-132.061	-12.3522	29.3788	-156.395	-27.0219	11.8325	-182.05	-45.9243	28.1795	-155.326	-8.55923	36.0744	-182.087	-35.7151	45.5691	-176.032	-45.9563	82.0871	-174.151	1.38497	51.5278	-190.117	-25.7513	67.0983	-178.422	-33.8279	99.8584	-179.197	14.1917	67.8217	-193.007	-15.0685	82.3348	-177.071	-24.7572	104.664	-128.883	35.3386	77.6299	-108.681	46.8395	107.997	-93.3918	10.6058	84.4857	
204	1.7	-101.609	-24.7528	103.216	-129.805	-52.465	95.2364	-158.372	-64.1029	86.2419	-187.403	-54.1085	73.5824	-131.37	-14.4667	24.1592	-159.388	-26.1277	13.4604	-179.799	-50.1375	29.298	-157.332	-6.61423	35.3097	-181.461	-33.3594	43.0624	-175.844	-42.6646	82.7045	-172.205	-1.46975	49.7922	-188.836	-27.1966	66.2893	-177.424	-34.6968	95.2151	-180.7	13.0738	66.9865	-192.995	-16.3315	80.731	-177.374	-25.9804	106.609	-127.375	34.6408	78.7375	-109.51	43.9571	107.616	-94.1766	16.2431	85.8538	
205	1.70833	-97.4087	-25.1369	99.5972	-122.87	-50.0717	91.9111	-153.676	-64.0614	73.789	-179.806	-58.9071	64.1794	-124.283	-5.18036	25.4134	-147.377	-22.6231	3.82424	-170.562	-44.3509	14.8886	-151.702	-4.73671	31.0016	-177.544	-31.7575	39.0486	-169.623	-45.0019	77.7368	-174.649	0.0749033	46.7113	-186.759	-27.2711	61.6382	-170.632	-38.3059	87.894	-180.708	8.15372	61.9865	-189.644	-18.9743	76.4251	-172.087	-30.1936	98.2926	-128.58	38.9842	79.1327	-116.618	48.5475	111.775	-96.2846	22.1371	87.3163	
206	1.71667	-96.0596	-19.3979	95.9441	-118.244	-45.9081	83.833	-144.389	-60.9994	65.3452	-172.23	-58.4617	50.6814	-120.324	6.36694	22.4028	-138.567	-10.4111	-4.03678	-159.01	-35.5354	-1.26883	-148.118	-0.801794	26.7398	-171.391	-29.0887	32.8226	-163.486	-46.2849	66.5028	-169.207	4.36351	43.3191	-179.838	-27.0972	51.9845	-165.602	-36.3424	85.1205	-177.509	11.8494	61.2786	-183.768	-21.2734	69.6938	-163.316	-31.2931	94.8229	-130.011	41.3055	79.6661	-118.93	50.0719	115.196	-95.9476	24.4901	85.5965	
207	1.725	-92.3633	-13.1593	95.8921	-111.695	-42.503	79.3603	-134.705	-59.7907	56.2182	-160.044	-61.5365	42.8518	-113.724	15.5157	19.0915	-127.186	4.2648	-7.39758	-147.504	-20.5573	-12.5139	-145.645	5.77363	23.7876	-163.79	-25.3411	24.0034	-158.859	-45.6542	59.7966	-162.678	4.11542	37.3948	-176.904	-23.3099	45.508	-160.542	-37.5119	73.2885	-179.892	10.4961	57.3537	-182.483	-22.4455	64.7013	-162.237	-29.3657	91.2562	-132.022	43.2771	81.8404	-121.811	51.1576	113.042	-96.6817	31.142	90.7114	
208	1.73333	-89.5853	-8.04416	96.1488	-107.838	-34.0561	74.5792	-126.176	-56.0908	50.8251	-153.579	-57.2675	34.9363	-112.028	25.6288	20.2925	-120.385	16.6247	-11.3186	-139.492	-6.47786	-21.5186	-141.806	14.1447	22.6527	-156.43	-21.0648	18.361	-152.503	-43.2881	54.4834	-163.811	11.0632	35.9775	-167.301	-24.0977	38.8775	-154.979	-38.017	68.9751	-174.14	11.0895	52.0843	-174.275	-23.0848	59.3912	-158.262	-30.3257	80.4305	-134.299	45.9304	84.3639	-126.328	52.0929	116.355	-99.9722	37.3191	90.8869	
209	1.74167	-88.2189	-3.40608	94.9322	-101.579	-31.0671	74.8194	-121.383	-50.3648	45.4521	-143.855	-53.2467	31.8208	-105.89	31.0634	23.0951	-116.539	26.1675	-9.53553	-134.317	2.83872	-26.2626	-140.118	19.2487	20.8443	-152.937	-17.6322	14.0816	-144.007	-41.9856	44.5168	-157.002	14.0044	32.1292	-163.455	-19.2159	30.5034	-150.234	-37.8067	61.5862	-174.953	12.3468	51.1853	-173.575	-21.5657	55.1724	-150.593	-29.1449	78.7488	-136.045	49.6541	82.8879	-125.725	52.6906	111.623	-99.4021	42.7366	92.4635	
